<svg width="24" height="25" viewBox="0 0 24 25" fill="none" xmlns="http://www.w3.org/2000/svg">
<g id="mintmark">
<mask id="mask0_1194_402" style="mask-type:alpha" maskUnits="userSpaceOnUse" x="0" y="0" width="24" height="25">
<rect id="Bounding box" y="0.5" width="24" height="24" fill="#D9D9D9"/>
</mask>
<g mask="url(#mask0_1194_402)">
<path id="mintmark_2" d="M13.1921 21.25V19.75H18.1384L13.1921 14.8038V12.6962L19.1921 18.6962V13.75H20.6921V21.25H13.1921ZM6.30762 17.25V16.25H3.30762V14.75H8.99987C9.07687 14.75 9.14737 14.7179 9.21137 14.6538C9.27553 14.5898 9.30762 14.5192 9.30762 14.4423V11.5578C9.30762 11.4808 9.27553 11.4102 9.21137 11.3462C9.14737 11.2821 9.07687 11.25 8.99987 11.25H5.11537C4.6102 11.25 4.18262 11.075 3.83262 10.725C3.48262 10.375 3.30762 9.94742 3.30762 9.44225V6.55775C3.30762 6.05258 3.48262 5.625 3.83262 5.275C4.18262 4.925 4.6102 4.75 5.11537 4.75H6.30762V3.75H7.80762V4.75H10.8076V6.25H5.11537C5.03837 6.25 4.96778 6.28208 4.90362 6.34625C4.83962 6.41025 4.80762 6.48075 4.80762 6.55775V9.44225C4.80762 9.51925 4.83962 9.58975 4.90362 9.65375C4.96778 9.71792 5.03837 9.75 5.11537 9.75H8.99987C9.50503 9.75 9.93262 9.925 10.2826 10.275C10.6326 10.625 10.8076 11.0526 10.8076 11.5578V14.4423C10.8076 14.9474 10.6326 15.375 10.2826 15.725C9.93262 16.075 9.50503 16.25 8.99987 16.25H7.80762V17.25H6.30762Z" fill="#1C1B1F"/>
</g>
</g>
</svg>
