<svg width="20" height="21" viewBox="0 0 20 21" fill="none" xmlns="http://www.w3.org/2000/svg">
<g id="Social Icons" clip-path="url(#clip0_58_120)">
<path id="c" d="M20 10.0972C20 4.57437 15.5228 0.097168 10 0.097168C4.4772 0.097168 0 4.57437 0 10.0972C0 14.7868 3.2288 18.722 7.5844 19.8028V13.1532H5.5224V10.0972H7.5844V8.78037C7.5844 5.37677 9.1248 3.79917 12.4664 3.79917C13.1 3.79917 14.1932 3.92357 14.6404 4.04757V6.81757C14.4044 6.79277 13.9944 6.78037 13.4852 6.78037C11.8456 6.78037 11.212 7.40157 11.212 9.01637V10.0972H14.4784L13.9172 13.1532H11.212V20.024C16.1636 19.426 20.0004 15.21 20.0004 10.0972H20Z" fill="#0866FF"/>
<path id="d" d="M13.9168 13.1532L14.478 10.0972H11.2116V9.01639C11.2116 7.40159 11.8452 6.78039 13.4848 6.78039C13.994 6.78039 14.404 6.79279 14.64 6.81759V4.04759C14.1928 3.92319 13.0996 3.79919 12.466 3.79919C9.12437 3.79919 7.58397 5.37679 7.58397 8.78039V10.0972H5.52197V13.1532H7.58397V19.8028C8.35757 19.9948 9.16677 20.0972 9.99957 20.0972C10.4096 20.0972 10.814 20.072 11.2112 20.024V13.1532H13.9164H13.9168Z" fill="white"/>
</g>
<defs>
<clipPath id="clip0_58_120">
<rect width="20" height="20" fill="white" transform="translate(0 0.097168)"/>
</clipPath>
</defs>
</svg>
