<svg width="30" height="30" viewBox="0 0 30 30" fill="none" xmlns="http://www.w3.org/2000/svg">
<g id="search">
<mask id="mask0_434_89" style="mask-type:alpha" maskUnits="userSpaceOnUse" x="0" y="0" width="30" height="30">
<rect id="Bounding box" width="30" height="30" fill="#D9D9D9"/>
</mask>
<g mask="url(#mask0_434_89)">
<path id="search_2" d="M24.3557 25.1922L16.5288 17.3653C15.9038 17.8974 15.1851 18.3093 14.3726 18.6009C13.5601 18.8926 12.7436 19.0384 11.9232 19.0384C9.92112 19.0384 8.22664 18.3454 6.83977 16.9594C5.4531 15.5733 4.75977 13.8799 4.75977 11.879C4.75977 9.87801 5.45279 8.18311 6.83883 6.79436C8.22487 5.40582 9.91831 4.71155 11.9191 4.71155C13.9202 4.71155 15.6151 5.40488 17.0038 6.79155C18.3924 8.17842 19.0866 9.8729 19.0866 11.875C19.0866 12.7435 18.9328 13.584 18.6251 14.3965C18.3174 15.209 17.9135 15.9037 17.4135 16.4806L25.2404 24.3078L24.3557 25.1922ZM11.9232 17.7884C13.5817 17.7884 14.982 17.2175 16.1238 16.0756C17.2657 14.9339 17.8366 13.5337 17.8366 11.875C17.8366 10.2162 17.2657 8.81603 16.1238 7.67436C14.982 6.53249 13.5817 5.96155 11.9232 5.96155C10.2645 5.96155 8.86424 6.53249 7.72258 7.67436C6.5807 8.81603 6.00977 10.2162 6.00977 11.875C6.00977 13.5337 6.5807 14.9339 7.72258 16.0756C8.86424 17.2175 10.2645 17.7884 11.9232 17.7884Z" fill="#1C1B1F"/>
</g>
</g>
</svg>
